
<svg width="6.8229vw" height="3.8889vh" viewBox="0 0 131 42" fill="none" xmlns="http://www.w3.org/2000/svg">
<path opacity="0.1" fill-rule="evenodd" clip-rule="evenodd" d="M86.8693 7.87291C79.0163 2.8464 72.9564 0.537917 66.3365 0.0503061C65.7186 0.00480221 60.382 -0.013158 54.4774 0.0103125L43.7418 0.052941L39.9968 1.03966C33.5012 2.75132 26.3139 5.25284 20.3334 7.88369C18.6012 8.64552 18.0192 8.76838 14.8407 9.0426C13.4202 9.16507 11.3681 9.25759 9.62402 9.28675V3.1602L6.42995 3.1602V9.27163C4.56393 9.25695 4.41389 9.33126 4.5143 9.65547C4.58645 9.88802 4.71627 10.3641 4.80315 10.7138C4.97543 11.4078 4.38947 15.2855 3.79551 17.3828C2.86551 20.6672 3.10893 24.2799 4.4369 26.8964C5.24957 28.4977 7.32878 30.8562 8.38811 31.3781C9.30489 31.8298 17.456 34.6546 17.5586 34.5562C17.605 34.5114 17.5326 34.1054 17.3978 33.654C17.0083 32.3516 17.1117 29.6077 17.6155 27.8645C19.3779 21.7679 26.2382 17.8622 32.4561 19.4158C38.6828 20.9716 42.8532 26.7326 41.9474 32.5277C41.7979 33.4844 41.5882 34.4726 41.4813 34.7236C41.2913 35.1688 41.4903 35.176 49.7545 35.017C55.0891 34.9145 64.5504 34.9882 75.3245 35.2162C84.7307 35.4155 94.1521 35.5798 96.2607 35.5814C99.8122 35.5841 100.082 35.5534 99.9223 35.1652C99.2001 33.4095 98.9694 31.643 99.2225 29.8044C100.438 20.9699 111.598 17.2225 118.105 23.464C121.009 26.2507 122.087 29.8844 121.113 33.6092C120.894 34.4496 120.754 35.176 120.804 35.2236C121.156 35.5616 128.14 33.9479 129.924 33.1163C130.944 32.6409 131 32.5617 131 31.585C131 31.0184 130.909 30.5549 130.798 30.5549C130.687 30.5549 130.405 30.4203 130.171 30.2556C129.771 29.9744 129.775 29.8252 130.242 27.8008C130.881 25.0327 130.875 24.063 130.211 22.8217C129.843 22.1326 129.626 21.1689 129.525 19.7777L129.377 17.742L127.505 16.721C122.062 13.7535 113.281 11.3949 103.662 10.3165C98.9042 9.78312 91.4245 9.5635 90.9476 9.94334C90.6338 10.1931 89.9619 9.85209 86.8693 7.87291ZM39.0331 26.8485C37.7049 24.0658 34.4198 21.6596 31.3399 21.2137C25.5459 20.375 20.3521 23.9791 19.3604 29.5268C18.4903 34.3933 21.6017 39.1281 26.6624 40.6389C32.4269 42.3599 38.5987 38.7138 39.8707 32.8359C40.235 31.1527 39.8815 28.6265 39.0331 26.8485ZM118.785 27.8613C117.693 25.1431 114.67 22.8174 111.72 22.426C106.652 21.7538 102.125 24.9304 101.33 29.7167C100.681 33.625 102.844 37.3963 106.728 39.1284C107.921 39.6603 108.505 39.7652 110.278 39.7652C112.051 39.7652 112.635 39.6603 113.827 39.1284C115.806 38.2463 117.605 36.5579 118.569 34.6809C119.273 33.3094 119.364 32.9015 119.352 31.1831C119.341 29.7744 119.185 28.8581 118.785 27.8613ZM0.0436554 1.82189e-10L11.2229 1.57949L12.82 3.15897H0.0436554V1.82189e-10ZM66.1157 22.3939C66.7088 23.3296 69.7362 23.4543 70.8625 22.8622C70.9145 22.8348 70.9801 22.7991 71.0565 22.7575L71.0566 22.7575L71.0571 22.7572C71.853 22.324 73.8155 21.2559 73.6806 22.3939C73.3717 24.9891 71.6632 26.873 69.8462 28.8765C69.5926 29.1561 69.3369 29.438 69.0826 29.7246C67.0053 32.0642 66.1157 32.9999 66.1157 32.9999C66.1157 32.9999 65.2253 32.0642 63.1489 29.7246C62.8947 29.4382 62.6391 29.1564 62.3856 28.8769L62.3847 28.8758L62.3842 28.8753C60.5674 26.8722 58.859 24.9886 58.5508 22.3939C58.4152 21.2558 60.3785 22.3242 61.1745 22.7573L61.175 22.7576C61.2514 22.7991 61.317 22.8348 61.369 22.8622C62.4943 23.4543 65.5219 23.3295 66.1157 22.3939ZM78.1 14.1198C77.9667 12.8159 75.4998 11.9144 71.9143 11.6409C71.5716 9.63116 71.1743 7.31206 71.0589 6.68139C70.7932 5.2373 68.8919 4.43065 67.4786 5.47142C66.7377 6.01743 66.0755 6.05593 65.7243 6.05593C65.6914 6.05593 65.6583 6.05661 65.6243 6.05732C65.2947 6.06415 64.8886 6.07256 63.9691 5.47142C62.5011 4.51093 60.6553 5.2373 60.3896 6.68139C60.2486 7.45129 59.6881 10.7377 59.3189 12.9056C55.7907 13.9011 53.4998 15.3017 53.6348 16.621C53.8382 18.612 59.4804 19.6647 66.2361 18.9743C72.9918 18.2839 78.3033 16.11 78.1 14.1198ZM59.9538 14.5958L60.3435 12.5681C60.3435 12.5681 67.2846 13.6601 71.1837 11.6324L71.5733 13.3483C71.5733 13.3483 67.3623 15.9997 59.9538 14.5958Z" fill="white"/>
</svg>
