
<svg width="2.3958vw" height="6.6667vh" viewBox="0 0 46 72" fill="none" xmlns="http://www.w3.org/2000/svg">
<path opacity="0.1" d="M3.05985 34.3789C4.46717 36.5346 10.5753 44.0063 14.5787 46.5903L14.612 71.9969H29.4098V47.9383C35.5892 40.8606 36.9932 35.131 38.679 30.4114C39.3715 28.4733 42.937 24.3246 43.5664 23.6144C44.4658 22.6019 45.3557 19.4325 45.4772 16.8734C45.6151 13.9632 43.7045 12.8331 42.2184 13.2767C40.7338 13.7218 41.2548 17.154 41.105 17.8978C40.9575 18.6377 38.7304 21.9049 38.2853 22.3498C37.8391 22.7947 34.571 24.8745 35.0159 23.9845C35.4645 23.0923 38.5149 16.5605 38.9599 15.0745C39.4049 13.5886 40.1127 10.9201 40.0272 9.68151C39.8581 7.23895 39.2692 4.87964 38.3413 3.69956C37.1885 2.23023 35.3087 2.77161 34.6341 4.03634C34.1701 4.9072 34.803 7.65898 35.1398 9.93505C35.1921 10.2872 33.5682 14.4013 33.4552 14.8522C33.2707 15.5851 31.3197 18.8877 30.0847 20.6366C28.6892 22.6116 27.8146 21.3303 28.0621 20.1311C28.1848 19.5363 28.9925 16.3133 29.523 13.277C29.9121 11.0499 29.4707 5.05724 29.9156 3.27869C30.3631 1.49521 28.5807 -0.138227 26.9473 0.00928257C25.3139 0.158058 24.6011 2.04011 24.4226 3.57258C24.3 4.61963 24.3525 9.71765 24.1764 10.9025C23.8241 13.2797 21.2081 20.6927 21.2081 20.6927C21.2081 20.6927 20.2884 21.3126 19.5459 20.1253C18.8035 18.9357 17.9492 12.5694 17.6114 11.2846C17.2105 9.75224 16.9393 6.31255 15.0845 3.10994C14.2433 1.65495 10.8704 1.92972 10.9277 5.52508C10.9682 8.16873 11.9959 10.4673 12.6694 12.9408C12.8287 13.5249 13.4949 20.0708 13.7936 21.7042C14.0912 23.3365 11.9149 31.7432 11.3201 32.0406C10.7277 32.3369 6.79091 28.7783 6.93842 28.3333C7.08593 27.886 8.16026 25.4565 6.37805 22.0408C5.3954 20.1551 2.3223 20.4203 2.46855 21.4602C2.61957 22.5 0.983887 29.3218 0.983887 30.3676C0.983746 30.817 2.29362 33.2071 3.05985 34.3789Z" fill="white" style="fill:white;fill-opacity:1;"/>
</svg>
