
<svg width="4.375vw" height="6.6667vh" viewBox="0 0 84 72" fill="none" xmlns="http://www.w3.org/2000/svg">
<g opacity="0.1">
<path d="M46.4546 40.0154L57.6663 51.2271C59.8492 53.41 62.1983 54.8871 64.7136 55.6583C67.2287 56.4295 69.7319 56.4769 72.2234 55.8004C74.7149 55.1242 77.0284 53.7303 79.164 51.6185C81.2759 49.5304 82.67 47.2406 83.3462 44.7491C84.0224 42.2576 83.9749 39.7484 83.2037 37.2214C82.4325 34.6943 80.9435 32.3274 78.7368 30.1207L67.5255 18.9091L46.4546 40.0154Z" fill="white" style="fill:white;fill-opacity:1;"/>
<path d="M42.7464 37.796L63.7816 16.7255L52.6413 5.54947C50.4346 3.34273 48.0736 1.85378 45.5583 1.08261C43.043 0.311442 40.5397 0.263986 38.0484 0.940243C35.5568 1.6165 33.2551 3.01054 31.1433 5.12236C29.0315 7.23417 27.6375 9.52988 26.9612 12.0095C26.285 14.4891 26.3265 16.9924 27.0858 19.5195C27.8451 22.0465 29.3281 24.4134 31.5348 26.6201L42.7464 37.796ZM0 50.7164H36.9095C36.506 47.7027 35.4382 44.9857 33.706 42.5654C31.9738 40.1451 29.7849 38.2232 27.1392 36.7996C24.4935 35.3759 21.6046 34.664 18.4725 34.664C15.3166 34.664 12.4158 35.3759 9.7701 36.7996C7.12441 38.2232 4.93548 40.1451 3.20331 42.5654C1.47115 44.9857 0.403381 47.7027 0 50.7164ZM0 55.9126C0.403381 58.9498 1.47115 61.6785 3.20331 64.0988C4.93548 66.5191 7.12441 68.4412 9.7701 69.8651C12.4158 71.2887 15.3166 72.0005 18.4725 72.0005C21.6046 72.0005 24.4876 71.2887 27.1214 69.8651C29.7552 68.4412 31.9382 66.5132 33.6704 64.081C35.4026 61.649 36.4823 58.9262 36.9095 55.9126H0Z" fill="white" style="fill:white;fill-opacity:1;"/>
</g>
</svg>
