
<svg width="2.2917vw" height="8.0556vh" viewBox="0 0 44 87" fill="none" xmlns="http://www.w3.org/2000/svg">
<path opacity="0.1" d="M43.75 43.5001C30.1562 54.3751 35.5937 35.3438 35.5937 13.5938C32.4949 22.8905 30.1254 29.9462 28.1172 35.004C25.5066 26.8948 23.2234 15.9047 22 -9.50725e-07C20.7765 15.9047 18.4933 26.895 15.8828 35.004C13.8745 29.9462 11.505 22.8907 8.40618 13.5938C8.40618 35.3438 13.8437 54.3751 0.249907 43.5001C2.0316 47.0635 3.79951 51.1742 5.77224 55.1396C2.60652 59.7289 0.249906 63.2183 0.249905 69.5831C0.249905 78.2831 8.94992 87 22 87C35.05 87 43.75 78.2826 43.75 69.5829C43.75 63.1757 41.4256 59.6903 38.2277 55.0544C40.187 51.1095 41.9786 47.0421 43.75 43.4997L43.75 43.5001ZM35.0839 67.4592C35.0839 73.4651 29.2074 78.3342 22 78.3342C14.7925 78.3342 8.91585 73.4651 8.91585 67.4592C8.91585 65.8167 9.40794 64.2674 10.1904 62.8712C13.3587 67.4266 17.153 70.6876 22 70.6876C26.8471 70.6876 30.642 67.4266 33.8099 62.8712C34.5921 64.2672 35.0844 65.8165 35.0844 67.4592L35.0839 67.4592Z" fill="white" style="fill:white;fill-opacity:1;"/>
</svg>
