
<svg width="2.9167vw" height="6.6667vh" viewBox="0 0 56 72" fill="none" xmlns="http://www.w3.org/2000/svg">
<path opacity="0.1" d="M39.465 32.9057L49.0375 20.3044L55.5675 25.2651L45.995 37.8724L39.465 32.9057ZM37.5058 31.4537L47.6846 18.0465L40.8286 12.8435L30.6498 26.2508L37.5058 31.4537ZM33.319 16.5564L30.3786 22.5851L39.0628 11.1585L32.5862 6.23742L27.0649 13.5063L33.319 16.5564ZM30.1592 5.39794L23.0533 0L16.6544 8.42676L24.8313 12.4139L30.1592 5.39794ZM46.4612 41.2806L25.2838 25.6322L23.7725 25.7709L24.4672 26.0756L33.9376 47.1661L31.4207 47.5089L22.6328 27.9313L16.5386 25.2346L15.9292 20.536L21.9335 23.4947L27.4732 22.9873L30.0632 17.6808L13.167 9.43993L0.875 26.5814L16.2766 49.814L12.8181 72H41.1714V53.7677L46.548 46.3129L48.1798 39.0121L46.4612 41.2806Z" fill="white" style="fill:white;fill-opacity:1;"/>
</svg>
