
<svg width="3.4375vw" height="5.5556vh" viewBox="0 0 66 60" fill="none" xmlns="http://www.w3.org/2000/svg">
<g opacity="0.1">
<path d="M45.1479 40.8411C44.5947 41.0414 44.1732 41.5674 44.1732 42.1434L44.1205 42.7194C43.8571 45.3741 39.0891 47.3526 33.1094 47.3526C27.1296 47.3526 22.3617 45.3741 22.0982 42.7194L22.0455 42.1935C21.9929 41.6174 21.6504 41.0915 21.0182 40.8912C21.0182 40.8912 21.0182 40.8912 20.9655 40.8912C19.8064 40.4654 18.5683 41.2668 18.6737 42.4439L19.0162 47.2775C19.2269 49.7819 24.1003 53.6888 33.083 53.6888C41.8024 53.6888 46.9392 49.7819 47.1499 47.2775L47.4924 42.3938C47.5714 41.2418 46.3596 40.4153 45.1479 40.8411C45.2269 40.8411 45.2269 40.8411 45.1479 40.8411Z" fill="white"/>
<path d="M49.7578 12.0401C46.9655 7.98289 41.8024 5.2781 33.4782 5.2781C33.3201 5.2781 33.2147 5.2781 33.1357 5.2781C32.9777 5.2781 32.925 5.2781 32.7933 5.2781C24.4691 5.2781 19.3059 7.98289 16.5136 12.0401C14.0374 15.6965 13.4579 20.3798 14.2218 25.2635C15.2755 31.8752 15.2755 37.0844 23.0992 39.2132L23.3627 41.7677C23.5207 43.07 26.8662 44.9984 32.7406 44.9984C32.8986 44.9984 33.083 44.9984 33.1884 44.9984C33.3465 44.9984 33.4518 44.9984 33.6362 44.9984C39.4842 44.9984 42.9351 43.07 43.0141 41.7677L43.2776 39.2132C50.9432 37.0844 50.9432 31.8752 51.9969 25.2635C52.8399 20.455 52.234 15.7216 49.7578 12.0401ZM30.2117 29.3708C30.2117 31.4494 28.4468 33.0773 26.313 33.0773H22.8622C21.4397 33.0773 20.2279 31.9754 20.2279 30.5729V28.1185C20.2279 25.6141 22.4143 23.5354 25.0486 23.5354H27.6301C29.0526 23.5354 30.2644 24.6374 30.2644 26.0399V29.3708H30.2117ZM34.7426 38.2865H31.4498C30.5805 38.2865 29.8693 37.5102 30.238 36.7338L31.8713 33.2025C32.2664 32.2759 33.847 32.2759 34.2684 33.2025L35.9017 36.7338C36.2968 37.4851 35.6909 38.2865 34.7426 38.2865ZM46.0435 30.623C46.0435 31.9754 44.8845 33.1274 43.4093 33.1274H39.9584C37.772 33.1274 36.0597 31.4494 36.0597 29.4208V26.09C36.0597 24.7376 37.2188 23.5855 38.694 23.5855H41.2755C43.9098 23.5855 46.0962 25.6642 46.0962 28.1686V30.623H46.0435Z" fill="white"/>
<path d="M51.4174 8.85944C51.8125 9.38537 52.234 9.83617 52.5764 10.3621C53.5511 11.7145 54.2097 13.2172 54.7629 14.7449L59.8997 9.86121C61.3748 11.2637 63.9564 11.0633 65.1155 9.28519C65.774 8.30846 65.774 6.98111 65.1155 6.00438C63.9564 4.22623 61.4012 4.02588 59.8997 5.42836C61.3748 4.02588 61.1641 1.57153 59.2938 0.469582C58.2664 -0.156527 56.8703 -0.156527 55.8429 0.469582C53.9726 1.57153 53.7619 4.00083 55.237 5.42836L51.4174 8.85944Z" fill="white"/>
<path d="M59.8997 50.0574L50.7588 41.4421C50.8115 41.8178 50.9169 42.2185 50.8115 42.6443L50.469 47.5279C50.4164 48.2542 50.2056 48.8803 49.8632 49.6066L55.1317 54.6155C53.8672 55.8176 53.8672 57.8963 55.1317 59.0984C56.3961 60.3005 58.5825 60.3005 59.847 59.0984C61.1114 57.8963 61.1114 55.8176 59.847 54.6155C61.1114 55.8176 63.2978 55.8176 64.5623 54.6155C65.8267 53.4133 65.8267 51.3347 64.5623 50.1325C63.2451 48.8052 61.1641 48.8052 59.8997 50.0574Z" fill="white"/>
<path d="M14.8014 8.85944C14.4062 9.38537 13.9848 9.83617 13.6423 10.3621C12.6676 11.7145 12.0091 13.2172 11.4559 14.7449L6.3191 9.88626C4.84392 11.2887 2.26236 11.0884 1.1033 9.31024C0.444735 8.33351 0.444735 7.00616 1.1033 6.02943C2.26236 4.25128 4.81758 4.05092 6.3191 5.45341C4.84392 4.05092 5.05466 1.59658 6.92498 0.494626C7.95233 -0.131483 9.34848 -0.131483 10.3758 0.494626C12.2462 1.59658 12.4569 4.02588 10.9817 5.45341L14.8014 8.85944Z" fill="white"/>
<path d="M6.3191 50.0574L15.4599 41.392C15.4072 41.7677 15.3019 42.1684 15.4072 42.5942L15.7497 47.4778C15.8024 48.2041 16.0131 48.8302 16.3556 49.5565L11.0871 54.5654C12.3515 55.7675 12.3515 57.8462 11.0871 59.0483C9.82265 60.2504 7.63622 60.2504 6.37179 59.0483C5.10735 57.8462 5.10735 55.7675 6.37179 54.5654C5.10735 55.7675 2.92093 55.7675 1.65649 54.5654C0.39205 53.3632 0.39205 51.2846 1.65649 50.0824C2.97361 48.8052 5.05466 48.8052 6.3191 50.0574Z" fill="white"/>
</g>
</svg>
