
<svg width="4.3229vw" height="4.8148vh" viewBox="0 0 83 52" fill="none" xmlns="http://www.w3.org/2000/svg">
<path opacity="0.1" d="M29.6662 45.1721C33.7139 44.154 36.9627 42.5265 39.4127 40.2897C41.8627 38.0527 43.4523 35.3299 44.1814 32.1212C44.9107 28.9124 44.7018 25.318 43.5546 21.3381L38.9579 5.14015C38.3351 2.965 37.2659 1.4802 35.7501 0.685727C34.2343 -0.10874 32.3046 -0.212869 29.9612 0.373339L5.60126 6.45912C3.24147 7.06076 1.62731 8.05963 0.758777 9.45574C-0.10976 10.8518 -0.232666 12.6606 0.390058 14.882L4.96216 31.0568C6.0929 35.0214 7.82587 38.2262 10.1611 40.6714C12.4963 43.1164 15.319 44.7324 18.6293 45.5192C21.9396 46.3059 25.6185 46.1902 29.6662 45.1721ZM27.3557 36.888C24.7828 37.505 22.3411 37.4317 20.0304 36.6681C17.7198 35.9045 15.909 34.5354 14.598 32.5608C14.3358 32.1906 14.2989 31.8629 14.4874 31.5774C14.6758 31.292 15.0159 31.1647 15.5075 31.1957C17.1299 31.3191 18.8423 31.2728 20.645 31.0568C22.4476 30.8409 24.0536 30.5554 25.4629 30.2005C26.8394 29.8612 28.3552 29.3675 30.0103 28.7195C31.6655 28.0717 33.1732 27.3004 34.5333 26.4057C34.9431 26.128 35.3118 26.0701 35.6396 26.232C35.9673 26.3941 36.1229 26.7142 36.1065 27.1924C36.0082 29.5065 35.1724 31.5312 33.5992 33.2666C32.026 35.0021 29.9448 36.2092 27.3557 36.888ZM14.9667 21.6851C14.344 21.8548 13.8769 22.0708 13.5656 22.3331C13.2542 22.5953 12.9961 22.8383 12.7913 23.062C12.5864 23.2857 12.3529 23.4129 12.0907 23.4438C11.8941 23.4746 11.6974 23.4013 11.5007 23.2239C11.3041 23.0465 11.1566 22.7881 11.0583 22.4488C10.7633 21.4615 10.8985 20.5166 11.4639 19.6141C12.0293 18.7117 12.8445 18.137 13.9097 17.8902C14.9749 17.6434 15.9827 17.7745 16.9332 18.2836C17.8837 18.7927 18.4982 19.5254 18.7768 20.4819C18.8915 20.8367 18.9079 21.1375 18.8259 21.3843C18.744 21.6312 18.6047 21.7854 18.4081 21.8471C18.1131 21.9551 17.8058 21.959 17.4863 21.8587C17.1667 21.7584 16.8062 21.6697 16.4047 21.5926C16.0032 21.5155 15.5239 21.5463 14.9667 21.6851ZM29.9612 17.8671C29.3549 18.0368 28.892 18.2527 28.5725 18.515C28.2528 18.7772 27.9906 19.0163 27.7859 19.2323C27.581 19.4483 27.3474 19.5717 27.0852 19.6025C26.9049 19.6488 26.7165 19.5794 26.5198 19.3943C26.3231 19.2092 26.1675 18.9546 26.0529 18.6307C25.7579 17.6588 25.8972 16.7178 26.4707 15.8076C27.0443 14.8975 27.8555 14.319 28.9043 14.0721C29.9858 13.8099 30.9977 13.9371 31.9399 14.4539C32.8823 14.9707 33.4928 15.7073 33.7714 16.6638C33.886 17.0186 33.9023 17.3194 33.8204 17.5663C33.7386 17.8131 33.5993 17.9673 33.4026 18.029C33.1076 18.137 32.8003 18.1409 32.4808 18.0406C32.1613 17.9403 31.8008 17.8516 31.3992 17.7745C30.9977 17.6974 30.5183 17.7282 29.9612 17.8671ZM77.3537 12.4524L53.0185 6.32027C50.8553 5.76492 49.0321 5.79578 47.549 6.41285C46.066 7.0299 45.013 8.24088 44.3903 10.0458L44.0953 11.0408L46.7994 20.5282C48.1595 25.2642 48.3193 29.5759 47.2787 33.4633C46.2381 37.3508 44.1446 40.5904 40.9982 43.1821C42.1945 45.0642 43.8415 46.6839 45.9391 48.0413C48.0367 49.3989 50.503 50.4325 53.3379 51.1421C57.3529 52.1603 61.0114 52.2722 64.3135 51.4776C67.6155 50.6832 70.4341 49.0635 72.7693 46.6184C75.1045 44.1732 76.8375 40.9683 77.9684 37.0036L82.6142 20.8521C83.2369 18.6615 83.1058 16.8643 82.2208 15.4605C81.3359 14.0567 79.7136 13.054 77.3537 12.4524ZM52.576 26.4751C51.7401 26.2745 51.101 25.8194 50.6587 25.1098C50.2162 24.4002 50.1096 23.6366 50.339 22.819C50.5684 22.0322 51.06 21.4306 51.8138 21.0141C52.5677 20.5976 53.3708 20.4973 54.2229 20.7133C55.075 20.9292 55.7224 21.3997 56.1649 22.1248C56.6072 22.8498 56.7137 23.6058 56.4843 24.3926C56.2549 25.1947 55.7592 25.7963 54.9972 26.1974C54.2352 26.5985 53.4281 26.6911 52.576 26.4751ZM67.0051 30.1081C66.1694 29.8921 65.5344 29.4255 65.1001 28.7082C64.6658 27.9908 64.5634 27.2311 64.7928 26.4289C65.0059 25.6266 65.4893 25.0249 66.2431 24.6238C66.9969 24.2227 67.7999 24.1302 68.652 24.3461C69.5206 24.5467 70.172 25.0057 70.6063 25.723C71.0406 26.4404 71.143 27.2001 70.9134 28.0023C70.684 28.7891 70.1924 29.3907 69.4386 29.8071C68.6848 30.2237 67.8736 30.324 67.0051 30.1081ZM56.6565 38.9938C55.3783 38.6543 54.0919 38.4808 52.7972 38.4732C51.5026 38.4655 50.0687 38.6236 48.4955 38.9476C48.0038 39.0555 47.6391 38.9552 47.4015 38.6466C47.1639 38.3381 47.1763 37.9987 47.4385 37.6285C48.1432 36.5796 49.0567 35.7465 50.1792 35.1293C51.3018 34.5123 52.535 34.1266 53.8788 33.9723C55.2225 33.8181 56.5908 33.9262 57.9837 34.2964C60.1305 34.8054 61.8799 35.7734 63.2319 37.2005C64.5838 38.6275 65.2925 40.2664 65.3581 42.1175C65.3908 42.5804 65.2229 42.889 64.8542 43.0433C64.4855 43.1975 64.1209 43.1203 63.7603 42.8118C62.5312 41.7629 61.3636 40.9414 60.2574 40.3475C59.1514 39.7535 57.9511 39.3023 56.6565 38.9938Z" fill="white" fill-opacity="0.85"/>
</svg>
