
<svg width="6.6667vw" height="5.9259vh" viewBox="0 0 128 64" fill="none" xmlns="http://www.w3.org/2000/svg">
<path opacity="0.1" d="M64 0C80 20 52 12 20 12C33.6779 16.5592 44.0587 20.0453 51.5 23C39.5693 26.8408 23.4 30.2 0 32C23.4 33.8 39.5696 37.1592 51.5 41C44.0587 43.9547 33.6781 47.4408 20 52C52 52 80 44 64 64C69.2427 61.3787 75.2907 58.7776 81.1248 55.8752C87.8768 60.5328 93.0107 64 102.375 64C115.175 64 128 51.2 128 32C128 12.8 115.174 0 102.375 0C92.948 0 87.82 3.41973 80.9995 8.1248C75.1955 5.24213 69.2112 2.60613 63.9995 0H64ZM99.2501 12.7501C108.086 12.7501 115.25 21.396 115.25 32C115.25 42.604 108.086 51.2501 99.2501 51.2501C96.8336 51.2501 94.5541 50.5261 92.5 49.3749C99.2021 44.7136 104 39.1312 104 32C104 24.8685 99.2021 19.2853 92.5 14.6245C94.5539 13.4736 96.8333 12.7493 99.2501 12.7493V12.7501Z" fill="white"/>
</svg>
