
<svg width="4.0104vw" height="7.037vh" viewBox="0 0 77 76" fill="none" xmlns="http://www.w3.org/2000/svg">
<path opacity="0.1" d="M38.6069 76C43.7979 76 48.6844 75.0065 53.2666 73.0194C57.8491 71.0326 61.8912 68.2882 65.3931 64.7861C68.8951 61.2843 71.6396 57.2422 73.6264 52.6597C75.6134 48.0775 76.6069 43.1909 76.6069 38C76.6069 32.8091 75.6134 27.9225 73.6264 23.3402C71.6396 18.7578 68.8951 14.7157 65.3931 11.2137C61.8912 7.71175 57.8429 4.96731 53.2479 2.98039C48.6533 0.993463 43.7605 0 38.5696 0C33.3788 0 28.4922 0.993463 23.9099 2.98039C19.3275 4.96731 15.2916 7.71175 11.802 11.2137C8.31248 14.7157 5.57425 18.7578 3.58732 23.3402C1.6004 27.9225 0.606934 32.8091 0.606934 38C0.606934 43.1909 1.6004 48.0775 3.58732 52.6597C5.57425 57.2422 8.31869 61.2843 11.8206 64.7861C15.3226 68.2882 19.3648 71.0326 23.9471 73.0194C28.5294 75.0065 33.416 76 38.6069 76ZM38.6069 69.6665C34.2108 69.6665 30.1004 68.8469 26.2755 67.2078C22.4507 65.5687 19.0915 63.3024 16.1981 60.4089C13.3046 57.5154 11.0445 54.1563 9.41771 50.3315C7.79091 46.5067 6.97751 42.3961 6.97751 38C6.97751 33.6039 7.79091 29.4934 9.41771 25.6686C11.0445 21.8438 13.2984 18.4784 16.1795 15.5725C19.0605 12.6666 22.4134 10.4003 26.2383 8.7735C30.0631 7.14673 34.1736 6.33334 38.5696 6.33334C42.9657 6.33334 47.0762 7.14673 50.901 8.7735C54.7258 10.4003 58.0912 12.6666 60.9971 15.5725C63.9031 18.4784 66.1756 21.8438 67.8147 25.6686C69.4539 29.4934 70.2734 33.6039 70.2734 38C70.2734 42.3961 69.4601 46.5067 67.8334 50.3315C66.2065 54.1563 63.9463 57.5154 61.0528 60.4089C58.1594 63.3024 54.794 65.5687 50.9567 67.2078C47.1197 68.8469 43.0031 69.6665 38.6069 69.6665ZM35.1422 63.2586C36.7566 63.2586 37.5638 62.377 37.5638 60.6138V45.3763C37.5638 44.5569 37.899 44.1471 38.5696 44.1471C39.1656 44.1471 39.4636 44.5569 39.4636 45.3763V60.6138C39.4636 61.483 39.6996 62.1411 40.1716 62.588C40.6434 63.0351 41.2394 63.2586 41.9597 63.2586C43.5492 63.2586 44.344 62.377 44.344 60.6138V34.0137C44.344 33.3431 44.6297 33.0078 45.2012 33.0078C45.7475 33.0078 46.0206 33.3431 46.0206 34.0137V44.8922C46.0206 45.662 46.2379 46.2518 46.6726 46.6615C47.1072 47.0715 47.6474 47.2765 48.2931 47.2765C49.7586 47.2765 50.4913 46.4817 50.4913 44.8922V34.5725C50.4913 31.2444 49.5227 28.9967 47.5855 27.8294C45.648 26.6621 42.6552 26.0784 38.6069 26.0784H35.4775C34.7075 26.0784 34.0928 25.9977 33.6334 25.8362C33.1739 25.6748 32.6585 25.3954 32.0873 24.998L28.8089 22.7255L28.3245 15.2745C28.2749 14.5046 28.0327 13.9271 27.5981 13.5421C27.1635 13.1572 26.6232 12.9895 25.9775 13.0392C25.3069 13.0889 24.7791 13.3248 24.3942 13.7471C24.0092 14.1693 23.8415 14.7902 23.8912 15.6098L24.3755 23.0235C24.4252 23.8183 24.6177 24.4764 24.953 24.998C25.2883 25.5196 25.7167 25.9666 26.2383 26.3392L31.6402 30.2882C32.3108 30.7849 32.6461 31.4431 32.6461 32.2627V60.6138C32.6461 61.483 32.8821 62.1411 33.3539 62.588C33.8258 63.0351 34.4219 63.2586 35.1422 63.2586ZM38.6069 23.9176C39.9481 23.9176 41.0906 23.4395 42.0344 22.4833C42.9782 21.5271 43.4501 20.4033 43.4501 19.1118C43.4501 17.7457 42.9782 16.5908 42.0344 15.647C41.0906 14.7033 39.9481 14.2314 38.6069 14.2314C37.2409 14.2314 36.0922 14.7033 35.1608 15.647C34.2295 16.5908 33.7638 17.7457 33.7638 19.1118C33.7638 20.3784 34.2295 21.496 35.1608 22.4647C36.0922 23.4333 37.2409 23.9176 38.6069 23.9176Z" fill="white" style="fill:white;fill-opacity:1;"/>
</svg>
