
<svg width="11.9271vw" height="5.1852vh" viewBox="0 0 229 56" fill="none" xmlns="http://www.w3.org/2000/svg">
<g opacity="0.1">
<path fill-rule="evenodd" clip-rule="evenodd" d="M97.8398 14.98C104.46 15.4676 110.52 17.7761 118.373 22.8026C121.465 24.7818 122.137 25.1228 122.451 24.873C122.928 24.4932 130.407 24.7128 135.165 25.2462C144.784 26.3246 153.565 28.6831 159.008 31.6507L160.88 32.6717L161.028 34.7074C161.129 36.0986 161.346 37.0623 161.715 37.7514C162.378 38.9927 162.384 39.9624 161.745 42.7304C161.279 44.7549 161.274 44.9041 161.674 45.1853C161.908 45.35 162.19 45.4846 162.301 45.4846C162.412 45.4846 162.503 45.948 162.503 46.5147C162.503 47.4913 162.448 47.5706 161.427 48.046C159.643 48.8775 152.659 50.4913 152.307 50.1533C152.257 50.1057 152.397 49.3793 152.616 48.5389C153.59 44.814 152.513 41.1804 149.608 38.3937C143.101 32.1522 131.942 35.8996 130.726 44.7341C130.473 46.5727 130.703 48.3392 131.426 50.0949C131.585 50.4831 131.315 50.5138 127.764 50.5111C125.655 50.5095 116.234 50.3452 106.828 50.1459C96.0537 49.9179 86.5923 49.8441 81.2577 49.9466C72.9935 50.1057 72.7945 50.0985 72.9845 49.6533C73.0914 49.4023 73.3011 48.4141 73.4507 47.4573C74.3564 41.6623 70.186 35.9013 63.9594 34.3455C57.7414 32.7919 50.8811 36.6976 49.1187 42.7941C48.6149 44.5374 48.5115 47.2813 48.901 48.5837C49.0358 49.0351 49.1082 49.4411 49.0618 49.4859C48.9592 49.5843 40.8081 46.7595 39.8913 46.3078C38.832 45.7859 36.7528 43.4274 35.9401 41.8261C34.6121 39.2096 34.3687 35.5969 35.2987 32.3124C35.8927 30.2152 36.4786 26.3375 36.3064 25.6435C36.2195 25.2938 36.0897 24.8177 36.0175 24.5852C35.8962 24.1933 36.1406 24.1665 39.3376 24.2206C41.2355 24.2527 44.3883 24.1409 46.3439 23.9723C49.5224 23.6981 50.1044 23.5752 51.8366 22.8134C57.8171 20.1825 65.0045 17.681 71.5 15.9693L75.245 14.9826L85.9806 14.94C91.8852 14.9165 97.2218 14.9345 97.8398 14.98ZM62.8431 36.1434C65.923 36.5893 69.2081 38.9955 70.5363 41.7782C71.3847 43.5562 71.7382 46.0824 71.3739 47.7656C70.1019 53.6435 63.9302 57.2895 58.1656 55.5685C53.1049 54.0578 49.9936 49.323 50.8636 44.4565C51.8553 38.9088 57.0491 35.3047 62.8431 36.1434ZM143.223 37.3557C146.173 37.747 149.196 40.0728 150.288 42.791C150.688 43.7878 150.845 44.7041 150.855 46.1128C150.867 47.8312 150.776 48.239 150.072 49.6106C149.109 51.4876 147.309 53.176 145.331 54.058C144.138 54.59 143.554 54.6949 141.781 54.6949C140.008 54.6949 139.424 54.59 138.231 54.058C134.347 52.326 132.184 48.5547 132.833 44.6464C133.628 39.8601 138.155 36.6835 143.223 37.3557Z" fill="white"/>
<path d="M42.7261 16.5092L31.5469 14.9297V18.0887H44.3232L42.7261 16.5092Z" fill="white"/>
</g>
<rect opacity="0.1" width="6.31795" height="3.19407" transform="matrix(4.41971e-08 -1 -1 -4.3231e-08 41.125 24.4062)" fill="white"/>
<path opacity="0.1" d="M228.336 34.7339H191.199C186.781 34.7339 182.525 33.0724 179.275 30.0795L172.319 23.6725C169.651 21.2148 166.288 19.6418 162.692 19.1685L137.208 15.8154C135.882 15.641 134.581 15.3161 133.329 14.847L115.016 7.98598C113.042 7.24614 110.95 6.86719 108.841 6.86719H80.2031" stroke="url(#paint0_linear_107_558)" stroke-width="0.733333"/>
<path opacity="0.1" d="M228.336 41.3297H191.375C186.845 41.3297 182.49 39.5832 179.215 36.4535L168.203 25.9297" stroke="url(#paint1_linear_107_558)" stroke-width="0.733333"/>
<path opacity="0.1" d="M228.336 47.1969H191.375C186.845 47.1969 182.49 45.4504 179.215 42.3207L168.203 31.7969" stroke="url(#paint2_linear_107_558)" stroke-width="0.733333"/>
<path opacity="0.1" d="M228.333 29.6H191.47C186.965 29.6 182.631 27.8722 179.361 24.7724L172.511 18.2778C169.832 15.738 166.422 14.1049 162.764 13.6094L137.526 10.1913C136.167 10.0072 134.835 9.66506 133.555 9.17169L115.422 2.17881C113.402 1.39963 111.255 1 109.09 1H79.9049C78.0502 1 76.2072 1.29315 74.4441 1.86859L57.4025 7.43062C54.648 8.32962 51.7142 8.53467 48.8614 8.02757L28.1328 4.34286" stroke="url(#paint3_linear_107_558)" stroke-width="0.733333"/>
<g opacity="0.1">
<g filter="url(#filter0_f_107_558)">
<rect width="31.5333" height="0.733333" transform="matrix(1 0 0 -1 1 47.2031)" fill="url(#paint4_linear_107_558)"/>
</g>
<g filter="url(#filter1_f_107_558)">
<rect width="31.5333" height="0.733333" transform="matrix(1 0 0 -1 1 47.2031)" fill="url(#paint5_linear_107_558)"/>
</g>
<g filter="url(#filter2_f_107_558)">
<rect width="31.5333" height="0.733333" transform="matrix(1 0 0 -1 1 47.2031)" fill="url(#paint6_linear_107_558)"/>
</g>
<g filter="url(#filter3_f_107_558)">
<rect width="31.5333" height="0.733333" transform="matrix(1 0 0 -1 1 47.2031)" fill="url(#paint7_linear_107_558)"/>
</g>
<g filter="url(#filter4_f_107_558)">
<rect width="31.5333" height="0.733333" transform="matrix(1 0 0 -1 1 47.2031)" fill="url(#paint8_linear_107_558)"/>
</g>
<g filter="url(#filter5_f_107_558)">
<rect width="31.5333" height="0.733333" transform="matrix(1 0 0 -1 1 47.2031)" fill="url(#paint9_linear_107_558)"/>
</g>
<g filter="url(#filter6_f_107_558)">
<rect width="31.5333" height="0.733333" transform="matrix(1 0 0 -1 1 47.2031)" fill="url(#paint10_linear_107_558)"/>
</g>
<g filter="url(#filter7_f_107_558)">
<rect width="31.5333" height="0.733333" transform="matrix(1 0 0 -1 1 47.2031)" fill="url(#paint11_linear_107_558)"/>
</g>
</g>
<g opacity="0.1">
<g filter="url(#filter8_f_107_558)">
<rect width="31.5333" height="0.733333" transform="matrix(1 0 0 -1 1 45)" fill="url(#paint12_linear_107_558)"/>
</g>
<g filter="url(#filter9_f_107_558)">
<rect width="31.5333" height="0.733333" transform="matrix(1 0 0 -1 1 45)" fill="url(#paint13_linear_107_558)"/>
</g>
<g filter="url(#filter10_f_107_558)">
<rect width="31.5333" height="0.733333" transform="matrix(1 0 0 -1 1 45)" fill="url(#paint14_linear_107_558)"/>
</g>
<g filter="url(#filter11_f_107_558)">
<rect width="31.5333" height="0.733333" transform="matrix(1 0 0 -1 1 45)" fill="url(#paint15_linear_107_558)"/>
</g>
<g filter="url(#filter12_f_107_558)">
<rect width="31.5333" height="0.733333" transform="matrix(1 0 0 -1 1 45)" fill="url(#paint16_linear_107_558)"/>
</g>
<g filter="url(#filter13_f_107_558)">
<rect width="31.5333" height="0.733333" transform="matrix(1 0 0 -1 1 45)" fill="url(#paint17_linear_107_558)"/>
</g>
<g filter="url(#filter14_f_107_558)">
<rect width="31.5333" height="0.733333" transform="matrix(1 0 0 -1 1 45)" fill="url(#paint18_linear_107_558)"/>
</g>
<g filter="url(#filter15_f_107_558)">
<rect width="31.5333" height="0.733333" transform="matrix(1 0 0 -1 1 45)" fill="url(#paint19_linear_107_558)"/>
</g>
</g>
<defs>
<filter id="filter0_f_107_558" x="0.0466667" y="45.5154" width="33.4379" height="2.64104" filterUnits="userSpaceOnUse" color-interpolation-filters="sRGB">
<feFlood flood-opacity="0" result="BackgroundImageFix"/>
<feBlend mode="normal" in="SourceGraphic" in2="BackgroundImageFix" result="shape"/>
<feGaussianBlur stdDeviation="0.476667" result="effect1_foregroundBlur_107_558"/>
</filter>
<filter id="filter1_f_107_558" x="0.0466667" y="45.5154" width="33.4379" height="2.64104" filterUnits="userSpaceOnUse" color-interpolation-filters="sRGB">
<feFlood flood-opacity="0" result="BackgroundImageFix"/>
<feBlend mode="normal" in="SourceGraphic" in2="BackgroundImageFix" result="shape"/>
<feGaussianBlur stdDeviation="0.476667" result="effect1_foregroundBlur_107_558"/>
</filter>
<filter id="filter2_f_107_558" x="0.0466667" y="45.5154" width="33.4379" height="2.64104" filterUnits="userSpaceOnUse" color-interpolation-filters="sRGB">
<feFlood flood-opacity="0" result="BackgroundImageFix"/>
<feBlend mode="normal" in="SourceGraphic" in2="BackgroundImageFix" result="shape"/>
<feGaussianBlur stdDeviation="0.476667" result="effect1_foregroundBlur_107_558"/>
</filter>
<filter id="filter3_f_107_558" x="0.0466667" y="45.5154" width="33.4379" height="2.64104" filterUnits="userSpaceOnUse" color-interpolation-filters="sRGB">
<feFlood flood-opacity="0" result="BackgroundImageFix"/>
<feBlend mode="normal" in="SourceGraphic" in2="BackgroundImageFix" result="shape"/>
<feGaussianBlur stdDeviation="0.476667" result="effect1_foregroundBlur_107_558"/>
</filter>
<filter id="filter4_f_107_558" x="0.0466667" y="45.5154" width="33.4379" height="2.64104" filterUnits="userSpaceOnUse" color-interpolation-filters="sRGB">
<feFlood flood-opacity="0" result="BackgroundImageFix"/>
<feBlend mode="normal" in="SourceGraphic" in2="BackgroundImageFix" result="shape"/>
<feGaussianBlur stdDeviation="0.476667" result="effect1_foregroundBlur_107_558"/>
</filter>
<filter id="filter5_f_107_558" x="0.0466667" y="45.5154" width="33.4379" height="2.64104" filterUnits="userSpaceOnUse" color-interpolation-filters="sRGB">
<feFlood flood-opacity="0" result="BackgroundImageFix"/>
<feBlend mode="normal" in="SourceGraphic" in2="BackgroundImageFix" result="shape"/>
<feGaussianBlur stdDeviation="0.476667" result="effect1_foregroundBlur_107_558"/>
</filter>
<filter id="filter6_f_107_558" x="0.0466667" y="45.5154" width="33.4379" height="2.64104" filterUnits="userSpaceOnUse" color-interpolation-filters="sRGB">
<feFlood flood-opacity="0" result="BackgroundImageFix"/>
<feBlend mode="normal" in="SourceGraphic" in2="BackgroundImageFix" result="shape"/>
<feGaussianBlur stdDeviation="0.476667" result="effect1_foregroundBlur_107_558"/>
</filter>
<filter id="filter7_f_107_558" x="0.0466667" y="45.5154" width="33.4379" height="2.64104" filterUnits="userSpaceOnUse" color-interpolation-filters="sRGB">
<feFlood flood-opacity="0" result="BackgroundImageFix"/>
<feBlend mode="normal" in="SourceGraphic" in2="BackgroundImageFix" result="shape"/>
<feGaussianBlur stdDeviation="0.476667" result="effect1_foregroundBlur_107_558"/>
</filter>
<filter id="filter8_f_107_558" x="0.0466667" y="43.3123" width="33.4379" height="2.64104" filterUnits="userSpaceOnUse" color-interpolation-filters="sRGB">
<feFlood flood-opacity="0" result="BackgroundImageFix"/>
<feBlend mode="normal" in="SourceGraphic" in2="BackgroundImageFix" result="shape"/>
<feGaussianBlur stdDeviation="0.476667" result="effect1_foregroundBlur_107_558"/>
</filter>
<filter id="filter9_f_107_558" x="0.0466667" y="43.3123" width="33.4379" height="2.64104" filterUnits="userSpaceOnUse" color-interpolation-filters="sRGB">
<feFlood flood-opacity="0" result="BackgroundImageFix"/>
<feBlend mode="normal" in="SourceGraphic" in2="BackgroundImageFix" result="shape"/>
<feGaussianBlur stdDeviation="0.476667" result="effect1_foregroundBlur_107_558"/>
</filter>
<filter id="filter10_f_107_558" x="0.0466667" y="43.3123" width="33.4379" height="2.64104" filterUnits="userSpaceOnUse" color-interpolation-filters="sRGB">
<feFlood flood-opacity="0" result="BackgroundImageFix"/>
<feBlend mode="normal" in="SourceGraphic" in2="BackgroundImageFix" result="shape"/>
<feGaussianBlur stdDeviation="0.476667" result="effect1_foregroundBlur_107_558"/>
</filter>
<filter id="filter11_f_107_558" x="0.0466667" y="43.3123" width="33.4379" height="2.64104" filterUnits="userSpaceOnUse" color-interpolation-filters="sRGB">
<feFlood flood-opacity="0" result="BackgroundImageFix"/>
<feBlend mode="normal" in="SourceGraphic" in2="BackgroundImageFix" result="shape"/>
<feGaussianBlur stdDeviation="0.476667" result="effect1_foregroundBlur_107_558"/>
</filter>
<filter id="filter12_f_107_558" x="0.0466667" y="43.3123" width="33.4379" height="2.64104" filterUnits="userSpaceOnUse" color-interpolation-filters="sRGB">
<feFlood flood-opacity="0" result="BackgroundImageFix"/>
<feBlend mode="normal" in="SourceGraphic" in2="BackgroundImageFix" result="shape"/>
<feGaussianBlur stdDeviation="0.476667" result="effect1_foregroundBlur_107_558"/>
</filter>
<filter id="filter13_f_107_558" x="0.0466667" y="43.3123" width="33.4379" height="2.64104" filterUnits="userSpaceOnUse" color-interpolation-filters="sRGB">
<feFlood flood-opacity="0" result="BackgroundImageFix"/>
<feBlend mode="normal" in="SourceGraphic" in2="BackgroundImageFix" result="shape"/>
<feGaussianBlur stdDeviation="0.476667" result="effect1_foregroundBlur_107_558"/>
</filter>
<filter id="filter14_f_107_558" x="0.0466667" y="43.3123" width="33.4379" height="2.64104" filterUnits="userSpaceOnUse" color-interpolation-filters="sRGB">
<feFlood flood-opacity="0" result="BackgroundImageFix"/>
<feBlend mode="normal" in="SourceGraphic" in2="BackgroundImageFix" result="shape"/>
<feGaussianBlur stdDeviation="0.476667" result="effect1_foregroundBlur_107_558"/>
</filter>
<filter id="filter15_f_107_558" x="0.0466667" y="43.3123" width="33.4379" height="2.64104" filterUnits="userSpaceOnUse" color-interpolation-filters="sRGB">
<feFlood flood-opacity="0" result="BackgroundImageFix"/>
<feBlend mode="normal" in="SourceGraphic" in2="BackgroundImageFix" result="shape"/>
<feGaussianBlur stdDeviation="0.476667" result="effect1_foregroundBlur_107_558"/>
</filter>
<linearGradient id="paint0_linear_107_558" x1="228.336" y1="34.7339" x2="111.396" y2="7.22489" gradientUnits="userSpaceOnUse">
<stop stop-color="white"/>
<stop offset="1" stop-color="white" stop-opacity="0"/>
</linearGradient>
<linearGradient id="paint1_linear_107_558" x1="228.336" y1="41.3297" x2="165.028" y2="24.564" gradientUnits="userSpaceOnUse">
<stop stop-color="white"/>
<stop offset="1" stop-color="white" stop-opacity="0"/>
</linearGradient>
<linearGradient id="paint2_linear_107_558" x1="228.336" y1="47.1969" x2="165.028" y2="30.4312" gradientUnits="userSpaceOnUse">
<stop stop-color="white"/>
<stop offset="1" stop-color="white" stop-opacity="0"/>
</linearGradient>
<linearGradient id="paint3_linear_107_558" x1="228.333" y1="29.6" x2="76.1471" y2="-17.5426" gradientUnits="userSpaceOnUse">
<stop stop-color="white"/>
<stop offset="1" stop-color="white" stop-opacity="0"/>
</linearGradient>
<linearGradient id="paint4_linear_107_558" x1="31.5333" y1="0.733322" x2="0" y2="0.733322" gradientUnits="userSpaceOnUse">
<stop stop-color="white"/>
</linearGradient>
<linearGradient id="paint5_linear_107_558" x1="31.5333" y1="0.733322" x2="0" y2="0.733322" gradientUnits="userSpaceOnUse">
<stop stop-color="white"/>
</linearGradient>
<linearGradient id="paint6_linear_107_558" x1="31.5333" y1="0.733322" x2="0" y2="0.733322" gradientUnits="userSpaceOnUse">
<stop stop-color="white"/>
</linearGradient>
<linearGradient id="paint7_linear_107_558" x1="31.5333" y1="0.733322" x2="0" y2="0.733322" gradientUnits="userSpaceOnUse">
<stop stop-color="white"/>
</linearGradient>
<linearGradient id="paint8_linear_107_558" x1="31.5333" y1="0.733322" x2="0" y2="0.733322" gradientUnits="userSpaceOnUse">
<stop stop-color="white"/>
</linearGradient>
<linearGradient id="paint9_linear_107_558" x1="31.5333" y1="0.733322" x2="0" y2="0.733322" gradientUnits="userSpaceOnUse">
<stop stop-color="white"/>
</linearGradient>
<linearGradient id="paint10_linear_107_558" x1="31.5333" y1="0.733322" x2="0" y2="0.733322" gradientUnits="userSpaceOnUse">
<stop stop-color="white"/>
</linearGradient>
<linearGradient id="paint11_linear_107_558" x1="31.5333" y1="0.733322" x2="0" y2="0.733322" gradientUnits="userSpaceOnUse">
<stop stop-color="white"/>
</linearGradient>
<linearGradient id="paint12_linear_107_558" x1="31.5333" y1="0.733322" x2="0" y2="0.733322" gradientUnits="userSpaceOnUse">
<stop stop-color="white"/>
</linearGradient>
<linearGradient id="paint13_linear_107_558" x1="31.5333" y1="0.733322" x2="0" y2="0.733322" gradientUnits="userSpaceOnUse">
<stop stop-color="white"/>
</linearGradient>
<linearGradient id="paint14_linear_107_558" x1="31.5333" y1="0.733322" x2="0" y2="0.733322" gradientUnits="userSpaceOnUse">
<stop stop-color="white"/>
</linearGradient>
<linearGradient id="paint15_linear_107_558" x1="31.5333" y1="0.733322" x2="0" y2="0.733322" gradientUnits="userSpaceOnUse">
<stop stop-color="white"/>
</linearGradient>
<linearGradient id="paint16_linear_107_558" x1="31.5333" y1="0.733322" x2="0" y2="0.733322" gradientUnits="userSpaceOnUse">
<stop stop-color="white"/>
</linearGradient>
<linearGradient id="paint17_linear_107_558" x1="31.5333" y1="0.733322" x2="0" y2="0.733322" gradientUnits="userSpaceOnUse">
<stop stop-color="white"/>
</linearGradient>
<linearGradient id="paint18_linear_107_558" x1="31.5333" y1="0.733322" x2="0" y2="0.733322" gradientUnits="userSpaceOnUse">
<stop stop-color="white"/>
</linearGradient>
<linearGradient id="paint19_linear_107_558" x1="31.5333" y1="0.733322" x2="0" y2="0.733322" gradientUnits="userSpaceOnUse">
<stop stop-color="white"/>
</linearGradient>
</defs>
</svg>
