<svg width="9" height="9" viewBox="0 0 9 9" fill="none" xmlns="http://www.w3.org/2000/svg">
    <path
        d="M6.75008 0.602951C7.42881 0.994836 7.99342 1.55719 8.38802 2.23434C8.78262 2.91148 8.99352 3.67995 8.99985 4.46365C9.00618 5.24736 8.80772 6.01913 8.42411 6.70256C8.0405 7.386 7.48505 7.9574 6.81274 8.36019C6.14043 8.76299 5.37458 8.98322 4.591 8.99908C3.80742 9.01494 3.03328 8.82588 2.34523 8.45061C1.65717 8.07534 1.07906 7.52689 0.668108 6.85953C0.257161 6.19218 0.0276345 5.42907 0.00225008 4.64575L0 4.49995L0.00225008 4.35415C0.0274518 3.577 0.2536 2.81963 0.658646 2.1559C1.06369 1.49216 1.63381 0.944705 2.31343 0.566899C2.99305 0.189092 3.75896 -0.00616985 4.53651 0.000148611C5.31405 0.00646707 6.0767 0.214151 6.75008 0.602951ZM4.50006 1.79995C4.38983 1.79997 4.28345 1.84043 4.20108 1.91367C4.11872 1.98691 4.0661 2.08784 4.0532 2.1973L4.05005 2.24995V4.49995L4.0541 4.5589C4.06436 4.63697 4.09493 4.71099 4.14275 4.77355L4.1819 4.81855L5.53192 6.16855L5.57422 6.20545C5.65314 6.26668 5.75019 6.29991 5.85007 6.29991C5.94996 6.29991 6.04701 6.26668 6.12593 6.20545L6.16823 6.1681L6.20558 6.1258C6.26681 6.04688 6.30004 5.94984 6.30004 5.84995C6.30004 5.75006 6.26681 5.65302 6.20558 5.5741L6.16823 5.5318L4.95006 4.3132V2.24995L4.94691 2.1973C4.93401 2.08784 4.88139 1.98691 4.79903 1.91367C4.71666 1.84043 4.61028 1.79997 4.50006 1.79995Z"
        fill="white" />
</svg>