<svg width="10" height="7" viewBox="0 0 10 7" fill="none" xmlns="http://www.w3.org/2000/svg">
    <path
        d="M1.26035 0.259003L0.689291 1.64875H8.82452L8.81905 0.259023H3.53451V1.39774H3.23406V0.259023H2.89995V1.39774H2.5996V0.259023H2.2504V1.39774H1.94995V0.259023L1.26035 0.259003ZM9.02871 0.585842V1.41851H9.40303V0.585842H9.02871ZM0.810273 1.95591L1.22221 2.61153L0.251953 6.21281L2.28862 6.35972L2.72006 4.35289H5.03835L5.33207 2.70944L8.82833 2.63013L8.82572 1.95593H0.810253L0.810273 1.95591ZM4.94994 2.71812L4.7262 3.97023H2.80231L3.0623 2.76096L3.31328 2.75527L3.26873 3.48226L3.5544 3.76028L3.57449 3.07117L4.06903 2.73811L4.94996 2.71812H4.94994Z"
        fill="white" />
</svg>