<svg xmlns="http://www.w3.org/2000/svg" width="20" height="20" viewBox="0 0 20 20" fill="none">
    <g clip-path="url(#clip0_318_4)">
        <path
            d="M12.9358 2.76309C14.7328 4.45438 14.7328 7.31033 12.9358 9.00162C11.2864 10.554 8.71359 10.554 7.06422 9.00162C5.26722 7.31033 5.26722 4.45438 7.06422 2.76309C8.71359 1.21074 11.2864 1.21074 12.9358 2.76309Z"
            fill="white" />
        <path
            d="M18.6997 20H1.3003C0.643674 20 0.165246 19.3779 0.333817 18.7433L0.625 17.6471C1.02877 16.127 1.95401 14.7972 3.23894 13.8902L3.75 13.5294L5.64493 12.4593C6.24552 12.1202 7.00105 12.4765 7.12133 13.1557L8.125 18.8235L9.375 14.1177L8.4375 12.9412C8.05916 12.4664 8.39723 11.7647 9.00432 11.7647H10H10.9957C11.6028 11.7647 11.9408 12.4664 11.5625 12.9412L10.625 14.1177L11.875 18.8235L12.8787 13.1557C12.9989 12.4765 13.7545 12.1202 14.3551 12.4593L16.25 13.5294L16.7611 13.8902C18.046 14.7972 18.9712 16.127 19.375 17.6471L19.6662 18.7433C19.8348 19.3779 19.3563 20 18.6997 20Z"
            fill="white" />
    </g>
    <defs>
        <clipPath id="clip0_318_4">
            <rect width="20" height="20" fill="white" />
        </clipPath>
    </defs>
</svg>