<svg width="10" height="12" viewBox="0 0 10 12" fill="none" xmlns="http://www.w3.org/2000/svg">
    <path
        d="M5 0C3.6744 0.00147449 2.40354 0.49863 1.4662 1.38241C0.528855 2.26619 0.00156917 3.46443 5.31949e-06 4.71429C-0.00158236 5.73567 0.352269 6.72934 1.00728 7.54286C1.00728 7.54286 1.14364 7.71214 1.16591 7.73657L5 12L8.83591 7.73443C8.8559 7.71171 8.99272 7.54286 8.99272 7.54286L8.99318 7.54157C9.64786 6.72841 10.0015 5.7352 10 4.71429C9.99843 3.46443 9.47114 2.26619 8.5338 1.38241C7.59646 0.49863 6.3256 0.00147449 5 0ZM5 6.42857C4.6404 6.42857 4.28887 6.32803 3.98987 6.13966C3.69088 5.95129 3.45783 5.68356 3.32022 5.37031C3.18261 5.05707 3.1466 4.71238 3.21676 4.37985C3.28691 4.04731 3.46008 3.74185 3.71435 3.5021C3.96863 3.26236 4.2926 3.09909 4.64529 3.03294C4.99798 2.96679 5.36356 3.00074 5.69579 3.13049C6.02802 3.26024 6.31198 3.47997 6.51176 3.76188C6.71155 4.04379 6.81818 4.37523 6.81818 4.71429C6.81758 5.16877 6.62583 5.60447 6.28498 5.92584C5.94414 6.24721 5.48203 6.428 5 6.42857Z"
        fill="white" />
</svg>