<svg width="16" height="12" viewBox="0 0 16 12" fill="none" xmlns="http://www.w3.org/2000/svg">
    <path
        d="M1.5 0C1.10218 0 0.720644 0.158035 0.43934 0.43934C0.158035 0.720644 0 1.10218 0 1.5V8.5C0 8.89782 0.158035 9.27936 0.43934 9.56066C0.720644 9.84196 1.10218 10 1.5 10H12.5C12.8978 10 13.2794 9.84196 13.5607 9.56066C13.842 9.27936 14 8.89782 14 8.5V1.5C14 1.10218 13.842 0.720644 13.5607 0.43934C13.2794 0.158035 12.8978 0 12.5 0H1.5ZM4 1V2C4 2.53043 3.78929 3.03914 3.41421 3.41421C3.03914 3.78929 2.53043 4 2 4H1V3H2C2.26522 3 2.51957 2.89464 2.70711 2.70711C2.89464 2.51957 3 2.26522 3 2V1H4ZM7 6.75C6.53587 6.75 6.09075 6.56563 5.76256 6.23744C5.43437 5.90925 5.25 5.46413 5.25 5C5.25 4.53587 5.43437 4.09075 5.76256 3.76256C6.09075 3.43437 6.53587 3.25 7 3.25C7.46413 3.25 7.90925 3.43437 8.23744 3.76256C8.56563 4.09075 8.75 4.53587 8.75 5C8.75 5.46413 8.56563 5.90925 8.23744 6.23744C7.90925 6.56563 7.46413 6.75 7 6.75ZM1 7V6H2C2.53043 6 3.03914 6.21071 3.41421 6.58579C3.78929 6.96086 4 7.46957 4 8V9H3V8C3 7.73478 2.89464 7.48043 2.70711 7.29289C2.51957 7.10536 2.26522 7 2 7H1ZM12 7C11.7348 7 11.4804 7.10536 11.2929 7.29289C11.1054 7.48043 11 7.73478 11 8V9H10V8C10 7.46957 10.2107 6.96086 10.5858 6.58579C10.9609 6.21071 11.4696 6 12 6H13V7H12ZM12 3H13V4H12C11.4696 4 10.9609 3.78929 10.5858 3.41421C10.2107 3.03914 10 2.53043 10 2V1H11V2C11 2.26522 11.1054 2.51957 11.2929 2.70711C11.4804 2.89464 11.7348 3 12 3ZM15 8.5C15 9.16304 14.7366 9.79893 14.2678 10.2678C13.7989 10.7366 13.163 11 12.5 11H2.085C2.18844 11.2926 2.38008 11.5459 2.63351 11.725C2.88694 11.9041 3.18967 12.0002 3.5 12H12.5C13.4283 12 14.3185 11.6313 14.9749 10.9749C15.6313 10.3185 16 9.42826 16 8.5V3.5C16.0002 3.18967 15.9041 2.88694 15.725 2.63351C15.5459 2.38008 15.2926 2.18844 15 2.085V8.5Z"
        fill="white" />
</svg>