<svg width="6" height="10" viewBox="0 0 6 10" fill="none" xmlns="http://www.w3.org/2000/svg">
    <path fill-rule="evenodd" clip-rule="evenodd"
        d="M2.32293 0.0359677C2.28138 0.0595494 2.24073 0.104486 2.21838 0.151552C2.18307 0.225931 2.18182 0.265182 2.18182 1.29414V2.35972H2.00998C1.69716 2.35972 1.5142 2.43099 1.33505 2.62262C1.21615 2.74981 1.14431 2.88989 1.11118 3.05914C1.0822 3.20722 1.08253 9.15385 1.11153 9.29946C1.17838 9.63512 1.42944 9.90489 1.7418 9.97673C1.87576 10.0075 4.66765 10.0079 4.80365 9.97708C5.1122 9.90726 5.36987 9.63043 5.43436 9.29946C5.44785 9.23022 5.45455 8.80493 5.45455 8.01534V6.83477L5.72727 6.24704L6 5.65931V4.411C6 3.55426 5.99353 3.1302 5.97938 3.05914C5.91236 2.72263 5.66054 2.45188 5.34911 2.3815C5.28358 2.36669 4.84864 2.35972 3.99002 2.35972H2.72727V1.29414C2.72727 0.264752 2.72604 0.22595 2.69067 0.151473C2.62358 0.0101586 2.45935 -0.0414204 2.32293 0.0359677ZM4.76411 3.5713C4.84478 3.61553 4.90909 3.72809 4.90909 3.82503C4.90909 3.92198 4.84478 4.03453 4.76411 4.07877C4.69444 4.11696 4.65904 4.1181 3.54411 4.1181H2.39585L2.32333 4.07429C2.14035 3.96379 2.13849 3.69636 2.31987 3.57837L2.39091 3.53217L3.54164 3.53207C4.65915 3.53197 4.69444 3.5331 4.76411 3.5713ZM0.141109 4.74451C0.0995637 4.76809 0.0589091 4.81303 0.0365637 4.86009C0.00143639 4.9341 0 4.97396 0 5.87647C0 6.77936 0.00141819 6.81882 0.0366 6.89293C0.0919818 7.00957 0.178564 7.04872 0.381091 7.04872H0.545455V5.87647V4.70422L0.377273 4.70508C0.246018 4.70576 0.194164 4.71442 0.141109 4.74451ZM4.76411 4.74355C4.84478 4.78778 4.90909 4.90034 4.90909 4.99728C4.90909 5.09423 4.84478 5.20678 4.76411 5.25102C4.69444 5.28921 4.65904 5.29035 3.54411 5.29035H2.39585L2.32333 5.24654C2.14035 5.13604 2.13849 4.86861 2.31987 4.75062L2.39091 4.70442L3.54164 4.70432C4.65915 4.70422 4.69444 4.70535 4.76411 4.74355ZM2.58229 7.08805C2.66296 7.13228 2.72727 7.24484 2.72727 7.34178C2.72727 7.49111 2.59285 7.63485 2.4532 7.63485C2.36864 7.63485 2.25631 7.55887 2.21631 7.4746C2.14916 7.33317 2.19131 7.17876 2.31987 7.09512C2.40693 7.0385 2.48791 7.03632 2.58229 7.08805ZM2.58229 8.2603C2.66296 8.30453 2.72727 8.41709 2.72727 8.51404C2.72727 8.66336 2.59285 8.8071 2.4532 8.8071C2.36864 8.8071 2.25631 8.73112 2.21631 8.64685C2.14916 8.50542 2.19131 8.35101 2.31987 8.26737C2.40693 8.21075 2.48791 8.20857 2.58229 8.2603Z"
        fill="white" />
</svg>