<svg xmlns="http://www.w3.org/2000/svg" width="20" height="20" viewBox="0 0 20 20" fill="none">
    <g clip-path="url(#clip0_318_4)">
        <path
            d="M3.7617 18.0327L6.08057 1.64195C6.12446 1.33176 6.29029 1.05167 6.54131 0.863758C7.05953 0.475829 7.79314 0.578251 8.18365 1.09305C8.37281 1.34242 8.4545 1.65707 8.41061 1.96726L6.09174 18.358C6.04786 18.6682 5.88202 18.9483 5.631 19.1362C5.11278 19.5242 4.37917 19.4217 3.98866 18.9069C3.79951 18.6576 3.71781 18.3429 3.7617 18.0327Z"
            fill="white" />
        <path
            d="M18.3901 7.01227L2.78643 7.01227C2.46552 7.01227 2.15873 6.88031 1.93802 6.64736C1.51095 6.19659 1.51095 5.49053 1.93802 5.03976C2.15873 4.8068 2.46552 4.67485 2.78643 4.67485H18.3901C18.711 4.67485 19.0178 4.8068 19.2385 5.03976C19.6655 5.49053 19.6655 6.19659 19.2385 6.64736C19.0178 6.88031 18.711 7.01227 18.3901 7.01227Z"
            fill="white" />
        <path
            d="M17.2136 15.1932H1.60994C1.28904 15.1932 0.98225 15.0613 0.761541 14.8283C0.334466 14.3776 0.334466 13.6715 0.761541 13.2207C0.98225 12.9878 1.28904 12.8558 1.60994 12.8558H17.2136C17.5345 12.8558 17.8413 12.9878 18.062 13.2207C18.4891 13.6715 18.4891 14.3776 18.062 14.8283C17.8413 15.0613 17.5345 15.1932 17.2136 15.1932Z"
            fill="white" />
        <path
            d="M10.8205 18.0327L13.1394 1.64195C13.1833 1.33176 13.3491 1.05167 13.6001 0.863758C14.1183 0.475829 14.852 0.578251 15.2425 1.09305C15.4316 1.34242 15.5133 1.65707 15.4694 1.96726L13.1505 18.358C13.1067 18.6682 12.9408 18.9483 12.6898 19.1362C12.1716 19.5242 11.438 19.4217 11.0475 18.9069C10.8583 18.6576 10.7766 18.3429 10.8205 18.0327Z"
            fill="white" />
    </g>
    <defs>
        <clipPath id="clip0_318_4">
            <rect width="20" height="20" fill="white" />
        </clipPath>
    </defs>
</svg>