<svg width="16" height="14" viewBox="0 0 16 14" fill="none" xmlns="http://www.w3.org/2000/svg">
<path d="M7.77539 0.827214L3.27539 0.327214V1.32721L7.77539 0.827214Z" fill="#438EFF" style="fill:#438EFF;fill:color(display-p3 0.2627 0.5569 1.0000);fill-opacity:1;"/>
<path d="M7.77539 0.827214L3.27539 0.327214V1.32721L7.77539 0.827214Z" fill="url(#paint0_radial_1940_46)" style=""/>
<path d="M7.77539 0.827214L12.2754 1.32721V0.327214L7.77539 0.827214Z" fill="#438EFF" style="fill:#438EFF;fill:color(display-p3 0.2627 0.5569 1.0000);fill-opacity:1;"/>
<path d="M7.77539 0.827214L12.2754 1.32721V0.327214L7.77539 0.827214Z" fill="url(#paint1_radial_1940_46)" style=""/>
<path fill-rule="evenodd" clip-rule="evenodd" d="M9.4636 11.6268C8.85402 11.6399 8.27492 11.6464 7.72629 11.6464C7.17771 11.6464 6.59862 11.6399 5.98904 11.6268C5.37946 11.6137 4.78078 11.5952 4.19298 11.5713C3.60518 11.5473 3.06636 11.5201 2.57653 11.4896C2.55125 11.4881 2.52621 11.4865 2.50142 11.4849V12.5803C2.50142 12.8241 2.4176 13.0288 2.24997 13.1942C2.08234 13.3597 1.87661 13.4424 1.63278 13.4424H0.86864C0.620457 13.4424 0.413638 13.3597 0.248183 13.1942C0.0827275 13.0288 0 12.8241 0 12.5803V8.81842C0 8.44832 0.0272129 8.12502 0.0816388 7.84854C0.136065 7.57205 0.223147 7.31298 0.342883 7.07133C0.462621 6.82968 0.624809 6.57824 0.829449 6.31699L1.37807 5.60509C1.45644 5.21323 1.55223 4.82572 1.66543 4.44255C1.77864 4.0594 1.88967 3.71543 1.99852 3.41064C2.10737 3.10585 2.20098 2.87291 2.27936 2.71181C2.45352 2.34171 2.70388 2.04672 3.03044 1.82684C3.35699 1.60696 3.73797 1.4709 4.17338 1.41865C4.31707 1.40123 4.56199 1.38599 4.90814 1.37293C5.25428 1.35987 5.6701 1.34898 6.15558 1.34028C6.64107 1.33157 7.16464 1.32721 7.72629 1.32721C8.28798 1.32721 8.81157 1.33048 9.29707 1.33701C9.78252 1.34354 10.1983 1.35334 10.5445 1.3664C10.8907 1.37946 11.1377 1.39688 11.2858 1.41865C11.7168 1.47525 12.0967 1.61241 12.4254 1.83011C12.7542 2.04781 13.0056 2.34171 13.1798 2.71181C13.2538 2.87291 13.3463 3.10585 13.4574 3.41064C13.5684 3.71543 13.6794 4.0594 13.7904 4.44255C13.9015 4.82572 13.9962 5.21323 14.0745 5.60509L14.6297 6.31699C14.83 6.57824 14.9911 6.82968 15.113 7.07133C15.2349 7.31298 15.322 7.57205 15.3743 7.84854C15.4265 8.12502 15.4526 8.44832 15.4526 8.81842V12.5803C15.4526 12.8241 15.3699 13.0288 15.2045 13.1942C15.039 13.3597 14.8344 13.4424 14.5905 13.4424H13.8199C13.576 13.4424 13.3714 13.3597 13.2059 13.1942C13.0405 13.0288 12.9577 12.8241 12.9577 12.5803V11.4845C12.9308 11.4862 12.9036 11.4879 12.8761 11.4896C12.3863 11.5201 11.8474 11.5473 11.2596 11.5713C10.6718 11.5952 10.0732 11.6137 9.4636 11.6268ZM2.89328 4.3054C2.81055 4.571 2.74524 4.82136 2.69735 5.05648C2.66687 5.1784 2.67667 5.26439 2.72674 5.31446C2.77681 5.36453 2.86498 5.38522 2.99125 5.37651C3.35264 5.35474 3.74886 5.33297 4.17991 5.31119C4.61097 5.28942 5.11278 5.27201 5.68534 5.25895C6.2579 5.24589 6.93822 5.23935 7.72629 5.23935C8.51439 5.23935 9.19472 5.24589 9.76729 5.25895C10.3399 5.27201 10.8428 5.28942 11.276 5.31119C11.7092 5.33297 12.1065 5.35474 12.4679 5.37651C12.5942 5.38522 12.6824 5.36453 12.7324 5.31446C12.7825 5.26439 12.7923 5.1784 12.7618 5.05648C12.7052 4.82136 12.6366 4.56991 12.5561 4.30214C12.4755 4.03436 12.3928 3.78618 12.3079 3.55759C12.223 3.329 12.1435 3.15375 12.0695 3.03184C11.9781 2.87944 11.8801 2.76624 11.7756 2.69222C11.6711 2.6182 11.5296 2.56813 11.3511 2.542C11.1073 2.50282 10.6947 2.47452 10.1135 2.4571C9.53219 2.43968 8.73647 2.43097 7.72629 2.43097C6.71616 2.43097 5.92155 2.44077 5.34245 2.46037C4.76336 2.47996 4.34972 2.50717 4.10154 2.542C3.92738 2.56813 3.78587 2.6182 3.67702 2.69222C3.56817 2.76624 3.4702 2.87944 3.38312 3.03184C3.31345 3.1581 3.23508 3.33553 3.148 3.56412C3.06092 3.79271 2.97601 4.0398 2.89328 4.3054ZM2.2663 9.5793C2.46658 9.78177 2.71694 9.883 3.01738 9.883C3.31781 9.883 3.56817 9.78177 3.76846 9.5793C3.96874 9.37684 4.06888 9.12756 4.06888 8.83147C4.06888 8.53105 3.96874 8.2807 3.76846 8.08042C3.56817 7.88011 3.31781 7.77996 3.01738 7.77996C2.71694 7.77996 2.46658 7.88011 2.2663 8.08042C2.06601 8.2807 1.96586 8.53105 1.96586 8.83147C1.96586 9.12756 2.06601 9.37684 2.2663 9.5793ZM5.45349 9.41271C5.59282 9.55204 5.77569 9.6217 6.0021 9.6217H9.45704C9.67912 9.6217 9.85983 9.55204 9.99916 9.41271C10.1385 9.27338 10.2082 9.09051 10.2082 8.8641C10.2082 8.64207 10.1385 8.46138 9.99916 8.32205C9.85983 8.18272 9.67912 8.11306 9.45704 8.11306H6.0021C5.77569 8.11306 5.59282 8.18272 5.45349 8.32205C5.31415 8.46138 5.24449 8.64207 5.24449 8.8641C5.24449 9.09051 5.31415 9.27338 5.45349 9.41271ZM11.6907 9.5793C11.891 9.78177 12.1392 9.883 12.4353 9.883C12.7357 9.883 12.986 9.78177 13.1863 9.5793C13.3866 9.37684 13.4867 9.12756 13.4867 8.83147C13.4867 8.53105 13.3866 8.2807 13.1863 8.08042C12.986 7.88011 12.7357 7.77996 12.4353 7.77996C12.1392 7.77996 11.891 7.88011 11.6907 8.08042C11.4904 8.2807 11.3902 8.53105 11.3902 8.83147C11.3902 9.12756 11.4904 9.37684 11.6907 9.5793Z" fill="#438EFF" style="fill:#438EFF;fill:color(display-p3 0.2627 0.5569 1.0000);fill-opacity:1;"/>
<path fill-rule="evenodd" clip-rule="evenodd" d="M9.4636 11.6268C8.85402 11.6399 8.27492 11.6464 7.72629 11.6464C7.17771 11.6464 6.59862 11.6399 5.98904 11.6268C5.37946 11.6137 4.78078 11.5952 4.19298 11.5713C3.60518 11.5473 3.06636 11.5201 2.57653 11.4896C2.55125 11.4881 2.52621 11.4865 2.50142 11.4849V12.5803C2.50142 12.8241 2.4176 13.0288 2.24997 13.1942C2.08234 13.3597 1.87661 13.4424 1.63278 13.4424H0.86864C0.620457 13.4424 0.413638 13.3597 0.248183 13.1942C0.0827275 13.0288 0 12.8241 0 12.5803V8.81842C0 8.44832 0.0272129 8.12502 0.0816388 7.84854C0.136065 7.57205 0.223147 7.31298 0.342883 7.07133C0.462621 6.82968 0.624809 6.57824 0.829449 6.31699L1.37807 5.60509C1.45644 5.21323 1.55223 4.82572 1.66543 4.44255C1.77864 4.0594 1.88967 3.71543 1.99852 3.41064C2.10737 3.10585 2.20098 2.87291 2.27936 2.71181C2.45352 2.34171 2.70388 2.04672 3.03044 1.82684C3.35699 1.60696 3.73797 1.4709 4.17338 1.41865C4.31707 1.40123 4.56199 1.38599 4.90814 1.37293C5.25428 1.35987 5.6701 1.34898 6.15558 1.34028C6.64107 1.33157 7.16464 1.32721 7.72629 1.32721C8.28798 1.32721 8.81157 1.33048 9.29707 1.33701C9.78252 1.34354 10.1983 1.35334 10.5445 1.3664C10.8907 1.37946 11.1377 1.39688 11.2858 1.41865C11.7168 1.47525 12.0967 1.61241 12.4254 1.83011C12.7542 2.04781 13.0056 2.34171 13.1798 2.71181C13.2538 2.87291 13.3463 3.10585 13.4574 3.41064C13.5684 3.71543 13.6794 4.0594 13.7904 4.44255C13.9015 4.82572 13.9962 5.21323 14.0745 5.60509L14.6297 6.31699C14.83 6.57824 14.9911 6.82968 15.113 7.07133C15.2349 7.31298 15.322 7.57205 15.3743 7.84854C15.4265 8.12502 15.4526 8.44832 15.4526 8.81842V12.5803C15.4526 12.8241 15.3699 13.0288 15.2045 13.1942C15.039 13.3597 14.8344 13.4424 14.5905 13.4424H13.8199C13.576 13.4424 13.3714 13.3597 13.2059 13.1942C13.0405 13.0288 12.9577 12.8241 12.9577 12.5803V11.4845C12.9308 11.4862 12.9036 11.4879 12.8761 11.4896C12.3863 11.5201 11.8474 11.5473 11.2596 11.5713C10.6718 11.5952 10.0732 11.6137 9.4636 11.6268ZM2.89328 4.3054C2.81055 4.571 2.74524 4.82136 2.69735 5.05648C2.66687 5.1784 2.67667 5.26439 2.72674 5.31446C2.77681 5.36453 2.86498 5.38522 2.99125 5.37651C3.35264 5.35474 3.74886 5.33297 4.17991 5.31119C4.61097 5.28942 5.11278 5.27201 5.68534 5.25895C6.2579 5.24589 6.93822 5.23935 7.72629 5.23935C8.51439 5.23935 9.19472 5.24589 9.76729 5.25895C10.3399 5.27201 10.8428 5.28942 11.276 5.31119C11.7092 5.33297 12.1065 5.35474 12.4679 5.37651C12.5942 5.38522 12.6824 5.36453 12.7324 5.31446C12.7825 5.26439 12.7923 5.1784 12.7618 5.05648C12.7052 4.82136 12.6366 4.56991 12.5561 4.30214C12.4755 4.03436 12.3928 3.78618 12.3079 3.55759C12.223 3.329 12.1435 3.15375 12.0695 3.03184C11.9781 2.87944 11.8801 2.76624 11.7756 2.69222C11.6711 2.6182 11.5296 2.56813 11.3511 2.542C11.1073 2.50282 10.6947 2.47452 10.1135 2.4571C9.53219 2.43968 8.73647 2.43097 7.72629 2.43097C6.71616 2.43097 5.92155 2.44077 5.34245 2.46037C4.76336 2.47996 4.34972 2.50717 4.10154 2.542C3.92738 2.56813 3.78587 2.6182 3.67702 2.69222C3.56817 2.76624 3.4702 2.87944 3.38312 3.03184C3.31345 3.1581 3.23508 3.33553 3.148 3.56412C3.06092 3.79271 2.97601 4.0398 2.89328 4.3054ZM2.2663 9.5793C2.46658 9.78177 2.71694 9.883 3.01738 9.883C3.31781 9.883 3.56817 9.78177 3.76846 9.5793C3.96874 9.37684 4.06888 9.12756 4.06888 8.83147C4.06888 8.53105 3.96874 8.2807 3.76846 8.08042C3.56817 7.88011 3.31781 7.77996 3.01738 7.77996C2.71694 7.77996 2.46658 7.88011 2.2663 8.08042C2.06601 8.2807 1.96586 8.53105 1.96586 8.83147C1.96586 9.12756 2.06601 9.37684 2.2663 9.5793ZM5.45349 9.41271C5.59282 9.55204 5.77569 9.6217 6.0021 9.6217H9.45704C9.67912 9.6217 9.85983 9.55204 9.99916 9.41271C10.1385 9.27338 10.2082 9.09051 10.2082 8.8641C10.2082 8.64207 10.1385 8.46138 9.99916 8.32205C9.85983 8.18272 9.67912 8.11306 9.45704 8.11306H6.0021C5.77569 8.11306 5.59282 8.18272 5.45349 8.32205C5.31415 8.46138 5.24449 8.64207 5.24449 8.8641C5.24449 9.09051 5.31415 9.27338 5.45349 9.41271ZM11.6907 9.5793C11.891 9.78177 12.1392 9.883 12.4353 9.883C12.7357 9.883 12.986 9.78177 13.1863 9.5793C13.3866 9.37684 13.4867 9.12756 13.4867 8.83147C13.4867 8.53105 13.3866 8.2807 13.1863 8.08042C12.986 7.88011 12.7357 7.77996 12.4353 7.77996C12.1392 7.77996 11.891 7.88011 11.6907 8.08042C11.4904 8.2807 11.3902 8.53105 11.3902 8.83147C11.3902 9.12756 11.4904 9.37684 11.6907 9.5793Z" fill="url(#paint2_radial_1940_46)" style=""/>
<defs>
<radialGradient id="paint0_radial_1940_46" cx="0" cy="0" r="1" gradientUnits="userSpaceOnUse" gradientTransform="translate(5.84899 3.42314) rotate(49.9851) scale(14.7893 14.7815)">
<stop stop-color="white" style="stop-color:white;stop-opacity:1;"/>
<stop offset="1" stop-color="white" stop-opacity="0" style="stop-color:none;stop-opacity:0;"/>
</radialGradient>
<radialGradient id="paint1_radial_1940_46" cx="0" cy="0" r="1" gradientUnits="userSpaceOnUse" gradientTransform="translate(5.84899 3.42314) rotate(49.9851) scale(14.7893 14.7815)">
<stop stop-color="white" style="stop-color:white;stop-opacity:1;"/>
<stop offset="1" stop-color="white" stop-opacity="0" style="stop-color:none;stop-opacity:0;"/>
</radialGradient>
<radialGradient id="paint2_radial_1940_46" cx="0" cy="0" r="1" gradientUnits="userSpaceOnUse" gradientTransform="translate(5.84899 3.42314) rotate(49.9851) scale(14.7893 14.7815)">
<stop stop-color="white" style="stop-color:white;stop-opacity:1;"/>
<stop offset="1" stop-color="white" stop-opacity="0" style="stop-color:none;stop-opacity:0;"/>
</radialGradient>
</defs>
</svg>
