<svg width="16" height="14" viewBox="0 0 16 14" fill="none" xmlns="http://www.w3.org/2000/svg">
<path d="M7.77539 1.38282L3.27539 0.882817V1.88282L7.77539 1.38282Z" fill="#438EFF"/>
<path d="M7.77539 1.38282L3.27539 0.882817V1.88282L7.77539 1.38282Z" fill="url(#paint0_radial_82_192)"/>
<path d="M7.77539 1.38282L12.2754 1.88282V0.882817L7.77539 1.38282Z" fill="#438EFF"/>
<path d="M7.77539 1.38282L12.2754 1.88282V0.882817L7.77539 1.38282Z" fill="url(#paint1_radial_82_192)"/>
<path fill-rule="evenodd" clip-rule="evenodd" d="M9.4636 12.1824C8.85402 12.1955 8.27492 12.202 7.72629 12.202C7.17771 12.202 6.59862 12.1955 5.98904 12.1824C5.37946 12.1693 4.78078 12.1508 4.19298 12.1269C3.60518 12.1029 3.06636 12.0757 2.57653 12.0452C2.55125 12.0437 2.52621 12.0421 2.50142 12.0405V13.136C2.50142 13.3797 2.4176 13.5844 2.24997 13.7498C2.08234 13.9153 1.87661 13.998 1.63278 13.998H0.86864C0.620457 13.998 0.413638 13.9153 0.248183 13.7498C0.0827275 13.5844 0 13.3797 0 13.136V9.37403C0 9.00392 0.0272129 8.68063 0.0816388 8.40414C0.136065 8.12766 0.223147 7.86859 0.342883 7.62694C0.462621 7.38529 0.624809 7.13384 0.829449 6.87259L1.37807 6.1607C1.45644 5.76883 1.55223 5.38132 1.66543 4.99816C1.77864 4.615 1.88967 4.27103 1.99852 3.96624C2.10737 3.66146 2.20098 3.42851 2.27936 3.26741C2.45352 2.89732 2.70388 2.60233 3.03044 2.38245C3.35699 2.16257 3.73797 2.0265 4.17338 1.97425C4.31707 1.95684 4.56199 1.9416 4.90814 1.92854C5.25428 1.91547 5.6701 1.90459 6.15558 1.89588C6.64107 1.88717 7.16464 1.88282 7.72629 1.88282C8.28798 1.88282 8.81157 1.88608 9.29707 1.89261C9.78252 1.89915 10.1983 1.90894 10.5445 1.922C10.8907 1.93507 11.1377 1.95248 11.2858 1.97425C11.7168 2.03086 12.0967 2.16801 12.4254 2.38571C12.7542 2.60342 13.0056 2.89732 13.1798 3.26741C13.2538 3.42851 13.3463 3.66146 13.4574 3.96624C13.5684 4.27103 13.6794 4.615 13.7904 4.99816C13.9015 5.38132 13.9962 5.76883 14.0745 6.1607L14.6297 6.87259C14.83 7.13384 14.9911 7.38529 15.113 7.62694C15.2349 7.86859 15.322 8.12766 15.3743 8.40414C15.4265 8.68063 15.4526 9.00392 15.4526 9.37403V13.136C15.4526 13.3797 15.3699 13.5844 15.2045 13.7498C15.039 13.9153 14.8344 13.998 14.5905 13.998H13.8199C13.576 13.998 13.3714 13.9153 13.2059 13.7498C13.0405 13.5844 12.9577 13.3797 12.9577 13.136V12.0401C12.9308 12.0418 12.9036 12.0435 12.8761 12.0452C12.3863 12.0757 11.8474 12.1029 11.2596 12.1269C10.6718 12.1508 10.0732 12.1693 9.4636 12.1824ZM2.89328 4.861C2.81055 5.12661 2.74524 5.37697 2.69735 5.61208C2.66687 5.734 2.67667 5.81999 2.72674 5.87006C2.77681 5.92014 2.86498 5.94082 2.99125 5.93211C3.35264 5.91034 3.74886 5.88857 4.17991 5.8668C4.61097 5.84503 5.11278 5.82761 5.68534 5.81455C6.2579 5.80149 6.93822 5.79496 7.72629 5.79496C8.51439 5.79496 9.19472 5.80149 9.76729 5.81455C10.3399 5.82761 10.8428 5.84503 11.276 5.8668C11.7092 5.88857 12.1065 5.91034 12.4679 5.93211C12.5942 5.94082 12.6824 5.92014 12.7324 5.87006C12.7825 5.81999 12.7923 5.734 12.7618 5.61208C12.7052 5.37697 12.6366 5.12552 12.5561 4.85774C12.4755 4.58997 12.3928 4.34178 12.3079 4.11319C12.223 3.88461 12.1435 3.70936 12.0695 3.58744C11.9781 3.43505 11.8801 3.32184 11.7756 3.24782C11.6711 3.1738 11.5296 3.12373 11.3511 3.09761C11.1073 3.05842 10.6947 3.03012 10.1135 3.0127C9.53219 2.99528 8.73647 2.98658 7.72629 2.98658C6.71616 2.98658 5.92155 2.99637 5.34245 3.01597C4.76336 3.03556 4.34972 3.06277 4.10154 3.09761C3.92738 3.12373 3.78587 3.1738 3.67702 3.24782C3.56817 3.32184 3.4702 3.43505 3.38312 3.58744C3.31345 3.71371 3.23508 3.89114 3.148 4.11973C3.06092 4.34831 2.97601 4.59541 2.89328 4.861ZM2.2663 10.1349C2.46658 10.3374 2.71694 10.4386 3.01738 10.4386C3.31781 10.4386 3.56817 10.3374 3.76846 10.1349C3.96874 9.93244 4.06888 9.68316 4.06888 9.38707C4.06888 9.08665 3.96874 8.8363 3.76846 8.63602C3.56817 8.43572 3.31781 8.33556 3.01738 8.33556C2.71694 8.33556 2.46658 8.43572 2.2663 8.63602C2.06601 8.8363 1.96586 9.08665 1.96586 9.38707C1.96586 9.68316 2.06601 9.93244 2.2663 10.1349ZM5.45349 9.96831C5.59282 10.1076 5.77569 10.1773 6.0021 10.1773H9.45704C9.67912 10.1773 9.85983 10.1076 9.99916 9.96831C10.1385 9.82898 10.2082 9.64611 10.2082 9.41971C10.2082 9.19767 10.1385 9.01698 9.99916 8.87765C9.85983 8.73832 9.67912 8.66866 9.45704 8.66866H6.0021C5.77569 8.66866 5.59282 8.73832 5.45349 8.87765C5.31415 9.01698 5.24449 9.19767 5.24449 9.41971C5.24449 9.64611 5.31415 9.82898 5.45349 9.96831ZM11.6907 10.1349C11.891 10.3374 12.1392 10.4386 12.4353 10.4386C12.7357 10.4386 12.986 10.3374 13.1863 10.1349C13.3866 9.93244 13.4867 9.68316 13.4867 9.38707C13.4867 9.08665 13.3866 8.8363 13.1863 8.63602C12.986 8.43572 12.7357 8.33556 12.4353 8.33556C12.1392 8.33556 11.891 8.43572 11.6907 8.63602C11.4904 8.8363 11.3902 9.08665 11.3902 9.38707C11.3902 9.68316 11.4904 9.93244 11.6907 10.1349Z" fill="#438EFF"/>
<path fill-rule="evenodd" clip-rule="evenodd" d="M9.4636 12.1824C8.85402 12.1955 8.27492 12.202 7.72629 12.202C7.17771 12.202 6.59862 12.1955 5.98904 12.1824C5.37946 12.1693 4.78078 12.1508 4.19298 12.1269C3.60518 12.1029 3.06636 12.0757 2.57653 12.0452C2.55125 12.0437 2.52621 12.0421 2.50142 12.0405V13.136C2.50142 13.3797 2.4176 13.5844 2.24997 13.7498C2.08234 13.9153 1.87661 13.998 1.63278 13.998H0.86864C0.620457 13.998 0.413638 13.9153 0.248183 13.7498C0.0827275 13.5844 0 13.3797 0 13.136V9.37403C0 9.00392 0.0272129 8.68063 0.0816388 8.40414C0.136065 8.12766 0.223147 7.86859 0.342883 7.62694C0.462621 7.38529 0.624809 7.13384 0.829449 6.87259L1.37807 6.1607C1.45644 5.76883 1.55223 5.38132 1.66543 4.99816C1.77864 4.615 1.88967 4.27103 1.99852 3.96624C2.10737 3.66146 2.20098 3.42851 2.27936 3.26741C2.45352 2.89732 2.70388 2.60233 3.03044 2.38245C3.35699 2.16257 3.73797 2.0265 4.17338 1.97425C4.31707 1.95684 4.56199 1.9416 4.90814 1.92854C5.25428 1.91547 5.6701 1.90459 6.15558 1.89588C6.64107 1.88717 7.16464 1.88282 7.72629 1.88282C8.28798 1.88282 8.81157 1.88608 9.29707 1.89261C9.78252 1.89915 10.1983 1.90894 10.5445 1.922C10.8907 1.93507 11.1377 1.95248 11.2858 1.97425C11.7168 2.03086 12.0967 2.16801 12.4254 2.38571C12.7542 2.60342 13.0056 2.89732 13.1798 3.26741C13.2538 3.42851 13.3463 3.66146 13.4574 3.96624C13.5684 4.27103 13.6794 4.615 13.7904 4.99816C13.9015 5.38132 13.9962 5.76883 14.0745 6.1607L14.6297 6.87259C14.83 7.13384 14.9911 7.38529 15.113 7.62694C15.2349 7.86859 15.322 8.12766 15.3743 8.40414C15.4265 8.68063 15.4526 9.00392 15.4526 9.37403V13.136C15.4526 13.3797 15.3699 13.5844 15.2045 13.7498C15.039 13.9153 14.8344 13.998 14.5905 13.998H13.8199C13.576 13.998 13.3714 13.9153 13.2059 13.7498C13.0405 13.5844 12.9577 13.3797 12.9577 13.136V12.0401C12.9308 12.0418 12.9036 12.0435 12.8761 12.0452C12.3863 12.0757 11.8474 12.1029 11.2596 12.1269C10.6718 12.1508 10.0732 12.1693 9.4636 12.1824ZM2.89328 4.861C2.81055 5.12661 2.74524 5.37697 2.69735 5.61208C2.66687 5.734 2.67667 5.81999 2.72674 5.87006C2.77681 5.92014 2.86498 5.94082 2.99125 5.93211C3.35264 5.91034 3.74886 5.88857 4.17991 5.8668C4.61097 5.84503 5.11278 5.82761 5.68534 5.81455C6.2579 5.80149 6.93822 5.79496 7.72629 5.79496C8.51439 5.79496 9.19472 5.80149 9.76729 5.81455C10.3399 5.82761 10.8428 5.84503 11.276 5.8668C11.7092 5.88857 12.1065 5.91034 12.4679 5.93211C12.5942 5.94082 12.6824 5.92014 12.7324 5.87006C12.7825 5.81999 12.7923 5.734 12.7618 5.61208C12.7052 5.37697 12.6366 5.12552 12.5561 4.85774C12.4755 4.58997 12.3928 4.34178 12.3079 4.11319C12.223 3.88461 12.1435 3.70936 12.0695 3.58744C11.9781 3.43505 11.8801 3.32184 11.7756 3.24782C11.6711 3.1738 11.5296 3.12373 11.3511 3.09761C11.1073 3.05842 10.6947 3.03012 10.1135 3.0127C9.53219 2.99528 8.73647 2.98658 7.72629 2.98658C6.71616 2.98658 5.92155 2.99637 5.34245 3.01597C4.76336 3.03556 4.34972 3.06277 4.10154 3.09761C3.92738 3.12373 3.78587 3.1738 3.67702 3.24782C3.56817 3.32184 3.4702 3.43505 3.38312 3.58744C3.31345 3.71371 3.23508 3.89114 3.148 4.11973C3.06092 4.34831 2.97601 4.59541 2.89328 4.861ZM2.2663 10.1349C2.46658 10.3374 2.71694 10.4386 3.01738 10.4386C3.31781 10.4386 3.56817 10.3374 3.76846 10.1349C3.96874 9.93244 4.06888 9.68316 4.06888 9.38707C4.06888 9.08665 3.96874 8.8363 3.76846 8.63602C3.56817 8.43572 3.31781 8.33556 3.01738 8.33556C2.71694 8.33556 2.46658 8.43572 2.2663 8.63602C2.06601 8.8363 1.96586 9.08665 1.96586 9.38707C1.96586 9.68316 2.06601 9.93244 2.2663 10.1349ZM5.45349 9.96831C5.59282 10.1076 5.77569 10.1773 6.0021 10.1773H9.45704C9.67912 10.1773 9.85983 10.1076 9.99916 9.96831C10.1385 9.82898 10.2082 9.64611 10.2082 9.41971C10.2082 9.19767 10.1385 9.01698 9.99916 8.87765C9.85983 8.73832 9.67912 8.66866 9.45704 8.66866H6.0021C5.77569 8.66866 5.59282 8.73832 5.45349 8.87765C5.31415 9.01698 5.24449 9.19767 5.24449 9.41971C5.24449 9.64611 5.31415 9.82898 5.45349 9.96831ZM11.6907 10.1349C11.891 10.3374 12.1392 10.4386 12.4353 10.4386C12.7357 10.4386 12.986 10.3374 13.1863 10.1349C13.3866 9.93244 13.4867 9.68316 13.4867 9.38707C13.4867 9.08665 13.3866 8.8363 13.1863 8.63602C12.986 8.43572 12.7357 8.33556 12.4353 8.33556C12.1392 8.33556 11.891 8.43572 11.6907 8.63602C11.4904 8.8363 11.3902 9.08665 11.3902 9.38707C11.3902 9.68316 11.4904 9.93244 11.6907 10.1349Z" fill="url(#paint2_radial_82_192)"/>
<defs>
<radialGradient id="paint0_radial_82_192" cx="0" cy="0" r="1" gradientUnits="userSpaceOnUse" gradientTransform="translate(5.84899 3.97874) rotate(49.9851) scale(14.7893 14.7815)">
<stop stop-color="white"/>
<stop offset="1" stop-color="white" stop-opacity="0"/>
</radialGradient>
<radialGradient id="paint1_radial_82_192" cx="0" cy="0" r="1" gradientUnits="userSpaceOnUse" gradientTransform="translate(5.84899 3.97874) rotate(49.9851) scale(14.7893 14.7815)">
<stop stop-color="white"/>
<stop offset="1" stop-color="white" stop-opacity="0"/>
</radialGradient>
<radialGradient id="paint2_radial_82_192" cx="0" cy="0" r="1" gradientUnits="userSpaceOnUse" gradientTransform="translate(5.84899 3.97874) rotate(49.9851) scale(14.7893 14.7815)">
<stop stop-color="white"/>
<stop offset="1" stop-color="white" stop-opacity="0"/>
</radialGradient>
</defs>
</svg>
